
<svg version="1.0" xmlns="http://www.w3.org/2000/svg"
 width="220.000000pt" height="243.000000pt" viewBox="0 0 220.000000 243.000000"
 preserveAspectRatio="xMidYMid meet">

<g transform="translate(0.000000,243.000000) scale(0.100000,-0.100000)"
fill="#000000" stroke="none">
<path d="M1557 2343 c-4 -3 -7 -16 -7 -28 0 -27 -28 -53 -66 -64 l-29 -8 35
-10 c21 -5 43 -21 56 -40 l20 -30 13 29 c9 19 23 31 42 35 34 6 49 23 22 23
-30 0 -53 22 -67 63 -7 20 -16 34 -19 30z"/>
<path d="M1010 2303 c-77 -13 -182 -49 -268 -92 -462 -232 -668 -705 -450
-1032 49 -73 121 -129 214 -166 63 -25 80 -27 199 -27 166 0 289 30 455 110
106 52 122 64 215 158 150 152 222 279 259 459 15 72 23 267 10 267 -36 0 -74
-58 -137 -211 -63 -152 -109 -229 -179 -299 -73 -72 -122 -103 -215 -135 -144
-51 -279 -40 -386 28 -67 44 -146 128 -187 201 -18 31 -34 55 -37 53 -2 -3 3
-37 11 -76 29 -137 109 -249 255 -356 44 -32 81 -62 81 -66 0 -26 -184 -22
-277 6 -104 31 -203 124 -239 225 -75 215 37 515 265 706 135 113 264 181 437
228 80 22 85 24 44 24 -25 0 -56 -3 -70 -5z"/>
<path d="M1897 2023 c14 -51 7 -255 -11 -343 -56 -264 -187 -516 -415 -800
-30 -38 -34 -19 -10 51 20 62 31 220 16 235 -3 4 -38 -21 -77 -55 -147 -126
-285 -202 -455 -248 -82 -22 -122 -27 -220 -27 -181 0 -301 34 -423 121 -185
131 -255 372 -183 628 11 38 18 71 17 73 -6 5 -45 -101 -61 -164 -19 -78 -19
-239 0 -322 65 -276 337 -471 660 -472 39 0 113 9 165 20 52 11 101 20 108 20
15 0 16 -126 2 -216 -8 -51 -49 -185 -75 -246 -6 -16 0 -18 58 -18 60 0 69 3
138 48 408 267 747 762 826 1206 31 176 15 394 -36 495 -25 47 -35 53 -24 14z"/>
<path d="M976 1770 c-122 -39 -176 -174 -112 -283 34 -59 116 -102 176 -94 60
8 111 39 145 86 26 36 30 52 30 105 0 51 -5 70 -28 104 -43 66 -141 104 -211
82z"/>
</g>
</svg>
